<svg width="194" height="30" viewBox="0 0 194 30" fill="none" xmlns="http://www.w3.org/2000/svg">
<mask id="mask0_125_5319" style="mask-type:luminance" maskUnits="userSpaceOnUse" x="0" y="0" width="194" height="30">
<path d="M193.65 0H0V30H193.65V0Z" fill="white"/>
</mask>
<g mask="url(#mask0_125_5319)">
<path d="M43.4875 23.1874C41.9 23.1874 40.4625 22.8249 39.2125 22.1249C37.9625 21.4124 36.9625 20.4374 36.2625 19.1999C35.55 17.9749 35.2 16.5624 35.2 15.0249C35.2 13.4874 35.5625 11.9874 36.2875 10.7499C37.0125 9.51238 38 8.53738 39.2375 7.84988C40.475 7.16238 41.8625 6.81238 43.375 6.81238C44.6625 6.81238 45.8375 7.03738 46.875 7.46238C47.8875 7.88738 48.8125 8.54988 49.625 9.42488L47.85 11.6249C47.2625 10.9874 46.6 10.4999 45.9 10.1624C45.175 9.81238 44.35 9.63738 43.45 9.63738C42.425 9.63738 41.4875 9.87488 40.6875 10.3249C39.875 10.7874 39.2375 11.4249 38.7875 12.2374C38.3375 13.0499 38.1125 13.9749 38.1125 14.9874C38.1125 15.9999 38.3375 16.9749 38.7875 17.7874C39.2375 18.6124 39.875 19.2624 40.7 19.7124C41.5125 20.1749 42.4625 20.3999 43.5375 20.3999C44.775 20.3999 45.825 20.1124 46.65 19.5499C47.4875 18.9749 48.0125 18.1624 48.225 17.1374L48.25 17.0374H43.4625V14.5124H51.2625V15.4749C51.2625 17.0124 50.925 18.3749 50.275 19.5374C49.625 20.6874 48.7 21.5874 47.525 22.2124C46.35 22.8374 45 23.1624 43.4875 23.1624V23.1874Z" fill="white"/>
<path d="M62.85 22.8624L61.8 20.4124H55.2625L54.2125 22.8624H51.025L58.4625 6.81238H58.6L66.0375 22.8624H62.85ZM56.2375 18.0374H60.8375L58.525 12.7124L56.2375 18.0374Z" fill="white"/>
<path d="M67.7875 22.8625V7.13745H70.7125V20.0375H76.5875V22.8625H67.7875Z" fill="white"/>
<path d="M89.6125 22.8624L88.5625 20.4124H82.025L80.975 22.8624H77.7875L85.225 6.81238H85.3625L92.8 22.8624H89.6125ZM83 18.0374H87.6L85.2875 12.7124L83 18.0374Z" fill="white"/>
<path d="M101.075 23.1874C99.5375 23.1874 98.125 22.8249 96.8875 22.1124C95.65 21.3999 94.6625 20.4124 93.95 19.1749C93.2375 17.9374 92.8875 16.5374 92.8875 15.0124C92.8875 13.4874 93.25 12.0874 93.95 10.8499C94.6625 9.6124 95.65 8.6249 96.8875 7.9124C98.125 7.1999 99.5375 6.8374 101.075 6.8374C102.325 6.8374 103.513 7.0999 104.625 7.6249V10.9749C104.188 10.6124 103.663 10.3124 103.1 10.0749C102.463 9.8124 101.788 9.6874 101.075 9.6874C100.075 9.6874 99.175 9.9249 98.375 10.3874C97.575 10.8499 96.95 11.4999 96.4875 12.2999C96.0375 13.0999 95.8125 14.0124 95.8125 15.0124C95.8125 16.0124 96.0375 16.9249 96.4875 17.7249C96.9375 18.5249 97.575 19.1749 98.375 19.6374C99.175 20.0999 100.075 20.3374 101.075 20.3374C101.775 20.3374 102.463 20.1999 103.1 19.9499C103.675 19.7124 104.188 19.4124 104.625 19.0499V22.3999C103.525 22.9249 102.325 23.1874 101.075 23.1874Z" fill="white"/>
<path d="M114.375 23.1874C112.837 23.1874 111.425 22.8249 110.187 22.1124C108.95 21.3999 107.95 20.3999 107.237 19.1624C106.525 17.9249 106.162 16.5249 106.162 15.0124C106.162 13.4999 106.525 12.1124 107.25 10.8624C107.975 9.6124 108.975 8.6249 110.212 7.9124C111.462 7.1999 112.862 6.8374 114.387 6.8374C115.912 6.8374 117.312 7.1999 118.575 7.9124C119.825 8.6249 120.825 9.6249 121.55 10.8624C122.275 12.1124 122.637 13.4999 122.637 15.0124C122.637 16.5249 122.275 17.9124 121.562 19.1499C120.85 20.3874 119.85 21.3874 118.6 22.0999C117.35 22.8249 115.937 23.1874 114.4 23.1874H114.375ZM114.375 9.6624C113.375 9.6624 112.462 9.8999 111.662 10.3499C110.862 10.8124 110.212 11.4499 109.762 12.2624C109.3 13.0749 109.075 13.9874 109.075 14.9874C109.075 15.9874 109.312 16.8999 109.762 17.6999C110.225 18.4999 110.862 19.1499 111.662 19.6124C112.462 20.0749 113.375 20.3124 114.375 20.3124C115.375 20.3124 116.3 20.0749 117.112 19.6124C117.912 19.1499 118.55 18.4999 119.012 17.6874C119.462 16.8749 119.687 15.9624 119.687 14.9874C119.687 14.0124 119.45 13.0999 119 12.2874C118.537 11.4749 117.9 10.8249 117.1 10.3624C116.3 9.8999 115.387 9.6624 114.387 9.6624H114.375Z" fill="white"/>
<path d="M138.962 23.1874L128.037 13.0374V22.8624H125.112V6.81238H125.2L136.112 16.9749V7.13738H139.05V23.1874H138.962Z" fill="white"/>
<path d="M155.8 23.1874L144.863 13.0374V22.8624H141.95V6.81238H142.038L152.938 16.9749V7.13738H155.888V23.1874H155.8Z" fill="white"/>
<path d="M158.787 22.8625V7.13745H168.037V9.79995H161.7V13.6125H167.462V16.275H161.7V20.175H168.15V22.8625H158.787Z" fill="white"/>
<path d="M177.975 23.1874C176.437 23.1874 175.025 22.8249 173.787 22.1124C172.55 21.3999 171.562 20.4124 170.85 19.1749C170.137 17.9374 169.787 16.5374 169.787 15.0124C169.787 13.4874 170.15 12.0874 170.85 10.8499C171.562 9.6124 172.55 8.6249 173.787 7.9124C175.025 7.1999 176.437 6.8374 177.975 6.8374C179.225 6.8374 180.412 7.0999 181.525 7.6249V10.9749C181.087 10.6124 180.562 10.3124 180 10.0749C179.362 9.8124 178.687 9.6874 177.975 9.6874C176.975 9.6874 176.075 9.9249 175.275 10.3874C174.475 10.8499 173.85 11.4999 173.387 12.2999C172.937 13.0999 172.712 14.0124 172.712 15.0124C172.712 16.0124 172.937 16.9249 173.387 17.7249C173.837 18.5249 174.475 19.1749 175.275 19.6374C176.075 20.0999 176.975 20.3374 177.975 20.3374C178.675 20.3374 179.362 20.1999 180 19.9499C180.575 19.7124 181.087 19.4124 181.525 19.0499V22.3999C180.425 22.9249 179.225 23.1874 177.975 23.1874Z" fill="white"/>
<path d="M186.875 22.8625V9.96245H183.013V7.13745H193.65V9.96245H189.813V22.8625H186.875Z" fill="white"/>
<path d="M7.2625 15.6625L9.8625 17.1625V25.6625L2.5 21.4125V10.025L0 8.58752V22.8625L12.3625 30V15.725L7.2625 12.775V15.6625Z" fill="white"/>
<path d="M14.025 15.725V21.625L16.525 20.1875V17.175L23.8875 12.925V21.425L14.025 27.1125V30L26.3875 22.8625V8.58752L14.025 15.725Z" fill="white"/>
<path d="M15.8 9.8875L13.2 11.3875L5.83753 7.1375L13.2 2.8875L23.0625 8.575L25.5625 7.1375L13.2 0L0.837524 7.1375L13.2 14.275L18.3 11.325L15.8 9.8875Z" fill="white"/>
</g>
</svg>
